<svg xmlns="http://www.w3.org/2000/svg" width="1200" height="300" viewBox="0 0 1200 300" fill="none" role="img" aria-label="Aegis — Real-time antivirus for your Linux workstation. YARA signatures plus kernel-level behaviour detection, no cloud, no open ports.">
  <defs>
    <linearGradient id="b-light-g" x1="0" y1="0" x2="1" y2="1"><stop offset="0" stop-color="#ffffff"/><stop offset="1" stop-color="#f6f8fa"/></linearGradient>
    <radialGradient id="b-light-h" cx="0.8" cy="0.5" r="0.5"><stop offset="0" stop-color="#d8a35f" stop-opacity="0.14"/><stop offset="1" stop-color="#d8a35f" stop-opacity="0"/></radialGradient>
  </defs>
  <rect width="1200" height="300" rx="16" fill="url(#b-light-g)"/>
  <rect width="1200" height="300" rx="16" fill="url(#b-light-h)"/>
  <rect x="1" y="1" width="1198" height="298" rx="15" stroke="#d0d7de" stroke-width="1.5"/>
  <g transform="translate(72,66)">
    <rect x="0" y="-11" width="26" height="2" rx="1" fill="#d8a35f"/>
    <text x="40" y="-5" font-family="ui-monospace,'SF Mono',Consolas,monospace" font-size="13" letter-spacing="3" fill="#59636e">LINUX DESKTOP SECURITY · RUST</text>
  </g>
  <text x="70" y="140" font-family="Georgia,'Times New Roman',serif" font-size="62" font-weight="600" fill="#1f2328" letter-spacing="0.5">Aegis</text>
  <line x1="72" y1="160" x2="300" y2="160" stroke="#d8a35f" stroke-width="2" stroke-linecap="round"/>
  <text x="72" y="196" font-family="ui-monospace,'SF Mono',Consolas,monospace" font-size="17" fill="#3b4149">Real-time antivirus for your Linux workstation. YARA signatures plus</text><text x="72" y="222" font-family="ui-monospace,'SF Mono',Consolas,monospace" font-size="17" fill="#3b4149">kernel-level behaviour detection, no cloud, no open ports.</text>
  <rect x="72" y="247" width="52.4" height="22" rx="11" fill="#ffffff" stroke="#d0d7de"/>
        <text x="98.2" y="262" text-anchor="middle" font-family="ui-monospace,'SF Mono',Consolas,monospace" font-size="11.5" fill="#59636e">Rust</text><rect x="132.4" y="247" width="82.8" height="22" rx="11" fill="#ffffff" stroke="#d0d7de"/>
        <text x="173.8" y="262" text-anchor="middle" font-family="ui-monospace,'SF Mono',Consolas,monospace" font-size="11.5" fill="#59636e">fanotify</text><rect x="223.2" y="247" width="67.6" height="22" rx="11" fill="#ffffff" stroke="#d0d7de"/>
        <text x="257" y="262" text-anchor="middle" font-family="ui-monospace,'SF Mono',Consolas,monospace" font-size="11.5" fill="#59636e">YARA-X</text><rect x="298.79999999999995" y="247" width="82.8" height="22" rx="11" fill="#ffffff" stroke="#d0d7de"/>
        <text x="340.19999999999993" y="262" text-anchor="middle" font-family="ui-monospace,'SF Mono',Consolas,monospace" font-size="11.5" fill="#59636e">Tauri v2</text><rect x="389.59999999999997" y="247" width="44.8" height="22" rx="11" fill="#ffffff" stroke="#d0d7de"/>
        <text x="411.99999999999994" y="262" text-anchor="middle" font-family="ui-monospace,'SF Mono',Consolas,monospace" font-size="11.5" fill="#59636e">MIT</text>
  <g opacity="0.9"><path d="M960 80 l62 24 v58 c0 42 -34 70 -62 84 c-28 -14 -62 -42 -62 -84 v-58 z"
        fill="none" stroke="#d8a35f" stroke-width="2.5" opacity="0.9"/>
        <path d="M936 148 l16 16 l34 -36" fill="none" stroke="#d8a35f" stroke-width="3" stroke-linecap="round"/></g>
  <text x="1128" y="280" text-anchor="end" font-family="ui-monospace,'SF Mono',Consolas,monospace" font-size="12" fill="#a0a8b1">github.com/chrlstopher-c/aegis</text>
</svg>